<?xml version="1.0" encoding="UTF-8" standalone="no"?>
<!-- Created with Inkscape (http://www.inkscape.org/) -->

<svg
   width="500"
   height="499.99997"
   viewBox="0 0 132.29167 132.29166"
   version="1.1"
   id="svg1"
   xml:space="preserve"
   xmlns="http://www.w3.org/2000/svg"
   xmlns:svg="http://www.w3.org/2000/svg"
   xmlns:rdf="http://www.w3.org/1999/02/22-rdf-syntax-ns#"
   xmlns:cc="http://creativecommons.org/ns#"
   xmlns:dc="http://purl.org/dc/elements/1.1/"><title
     id="title38">Government of the People's Republic of Bangladesh - গণপ্রজাতন্ত্রী বাংলাদেশ সরকার</title><defs
     id="defs1">&#10;	&#10;	&#10;	&#10;	&#10;&#10;		&#10;		&#10;	&#10;		&#10;		&#10;		&#10;	&#10;			&#10;			&#10;		&#10;				&#10;				&#10;			&#10;				&#10;				&#10;			</defs><g
     id="layer1"
     transform="translate(-10.58333,-10.58334)"><g
       id="g38"
       transform="matrix(0.498,0,0,0.498,5.5774155,5.5774205)"><g
         id="g37"><g
           id="g5"
           transform="translate(337.48247)"><path
             id="path1"
             style="opacity:1;vector-effect:none;fill:#04984a;fill-opacity:1;fill-rule:evenodd;stroke-width:0.388641;stop-color:#000000;stop-opacity:1"
             d="M -62.315804,142.875 A 132.29167,132.29167 0 0 1 -194.60747,275.16666 132.29167,132.29167 0 0 1 -326.89914,142.875 132.29167,132.29167 0 0 1 -194.60747,10.58334 132.29167,132.29167 0 0 1 -62.315804,142.875 Z" /><path
             id="path4"
             style="opacity:1;vector-effect:none;fill:#ffffff;fill-opacity:1;fill-rule:evenodd;stroke-width:0.380436;stop-color:#000000;stop-opacity:1"
             d="M -65.108744,142.875 A 129.49873,129.49873 0 0 1 -194.60747,272.37372 129.49873,129.49873 0 0 1 -324.1062,142.875 129.49873,129.49873 0 0 1 -194.60747,13.37628 129.49873,129.49873 0 0 1 -65.108744,142.875 Z" /><path
             id="path5"
             style="opacity:1;vector-effect:none;fill:#ec2227;fill-opacity:1;fill-rule:evenodd;stroke-width:0.259848;stop-color:#000000;stop-opacity:1"
             d="m -106.15621,142.875 a 88.45127,88.45127 0 0 1 -88.45126,88.45126 88.45127,88.45127 0 0 1 -88.45127,-88.45126 88.45127,88.45127 0 0 1 88.45127,-88.451261 88.45127,88.45127 0 0 1 88.45126,88.451261 z" /></g><path
           id="path26"
           style="font-variation-settings:normal;display:inline;opacity:1;vector-effect:none;fill:#04984a;fill-opacity:1;fill-rule:evenodd;stroke-width:0.264583;stroke-linecap:butt;stroke-linejoin:miter;stroke-miterlimit:4;stroke-dasharray:none;stroke-dashoffset:0;stroke-opacity:1;-inkscape-stroke:none;stop-color:#000000;stop-opacity:1"
           d="m 145.0681,22.991878 c -3.49842,0.01105 -6.76916,0.969741 -7.87187,1.333769 0.24814,1.064031 0.4882,2.113553 0.73638,3.177584 5.23354,-1.855777 14.37615,-4.508668 15.34687,3.265434 -46.93607,-4.100103 -78.491051,19.153013 -93.058918,33.588647 l 3.020487,3.17655 C 50.123346,66.562181 50.449958,78.001465 50.690911,81.073604 c 2.02991,1.291777 2.892975,-1.015051 3.17655,-1.979207 0.417294,-1.418782 4.01478,-1.867207 3.332613,2.030884 h 2.812232 l 4.37441,-12.393559 5.259627,5.363497 c -9.200458,1.052729 -5.53462,8.569565 -9.415446,11.540381 -1.985777,1.520132 -4.393134,-0.361039 -5.009513,-1.593701 l -0.260449,1.822627 c 1.02307,1.574759 3.959741,2.726761 6.197037,1.978691 5.739568,-1.919101 2.867399,-14.067339 11.092347,-12.237496 L 73.552048,74.251799 64.074073,64.149056 74.489458,55.29585 c -0.954498,7.317818 5.591192,6.131982 8.092013,4.165637 0.918083,-0.721871 1.678143,-1.721022 2.322855,-3.019971 1.477678,0.09922 1.735135,2.583675 0.04754,4.687053 -4.086013,5.092711 -12.872951,2.194774 -14.875578,1.284159 l -0.84646,1.371492 c 3.209939,1.716578 13.858787,4.143604 18.20199,-1.268139 2.987699,-3.722756 0.197732,-9.6512 -4.766634,-8.521961 -0.30274,1.773186 -0.847928,2.935626 -1.44539,3.696415 -2.606735,3.319327 -7.036982,0.496448 -2.92902,-4.009057 1.353956,-1.510186 3.176858,-2.655606 3.541386,-2.863908 1.614333,0.729053 6.381705,1.061593 8.748303,0.260449 -1.666413,3.853572 1.250078,9.217274 1.718758,9.7901 l 1.822628,-0.624768 h 0.05219 v -0.05219 c -3.085706,-4.479262 -0.494151,-10.63617 0.520388,-11.248412 l -1.509986,-1.353923 c -3.945347,3.578473 -8.70797,2.469016 -9.165332,1.978691 -0.137125,-0.147008 0.05975,-0.462064 0.416512,-0.676961 3.921297,-2.362014 7.943642,-4.453349 12.081433,-6.248714 l 5.173326,13.062251 2.80862,-1.390612 -4.961458,-12.765113 c 18.604188,-8.721832 42.274848,-8.869803 43.847448,-8.74882 1.51896,0.428625 1.20175,2.916237 0.72916,3.801319 -1.17274,-0.224605 -2.3257,-0.03291 -3.70727,0.741557 -3.20873,-4.29854 -6.85729,-3.989432 -10.19679,0.30024 l 2.44739,1.926497 c 2.70795,-5.155451 6.65513,-2.408595 7.03833,-1.769918 -0.81841,0.67283 -1.6264,1.368376 -2.35127,2.134754 l 2.44739,1.770434 c 2.44755,-3.64527 4.33919,-3.467823 5.20744,-2.968294 1.53766,0.884684 0.48108,4.104182 0.26045,5.832202 -5.64484,-5.044291 -14.33507,5.346278 -12.16515,-2.969845 l -1.68672,0.574642 c -0.20831,2.135089 0.0934,3.553059 0.98908,4.322217 3.03262,2.604186 11.61183,-3.496883 13.59194,0.364319 l 1.40612,-0.05168 c 0.80799,-3.370018 1.71146,-7.831509 -1.66657,-9.634038 1.49197,-1.061393 1.33178,-3.251999 1.09347,-4.197159 0.87263,0.03507 3.69742,0.191475 6.19704,0.499711 -0.52273,4.565196 -1.04679,9.130283 -1.56631,13.695804 0.92001,0.06943 1.84416,0.167765 2.76417,0.237195 l 1.61437,-13.516487 c 0.74642,0.08679 1.49272,0.173659 2.23914,0.260449 l 0.31265,-2.968294 -2.81224,-0.26045 c -1.00464,-5.684171 -4.96798,-7.542236 -8.99531,-7.874971 -0.50342,-0.04159 -1.00763,-0.05946 -1.5074,-0.05788 z m 22.3237,9.859864 -0.85783,2.705261 c 5.34542,1.173105 11.34562,3.026314 15.9768,4.666898 l -0.48576,1.167888 c -5.48492,-0.574615 -10.97027,-1.154726 -16.45584,-1.718242 l 0.46871,3.228744 c 6.56148,1.458106 10.67588,5.259488 11.61324,10.675317 l 0.90072,0.454753 6.19755,-12.973368 4.46226,2.073775 -6.68641,12.939262 2.49597,1.295011 6.62492,-13.053984 2.07688,0.98702 1.2516,-2.675289 C 184.46283,37.581446 177.46097,35.447374 167.3918,32.851742 Z m -46.82712,3.521232 c -0.12439,-0.0025 -0.24982,-0.0023 -0.3762,10e-4 -2.42652,0.06361 -5.19717,1.199302 -7.47552,3.611666 l 2.95073,2.586405 c 1.24539,-2.561028 4.05626,-5.803738 6.73499,-4.148584 4.34601,2.685376 -4.63187,15.491281 -17.91364,3.593063 l -1.30224,0.312642 c 6.68794,10.056488 19.65781,9.279087 22.39243,1.718758 1.69021,-4.753717 -1.15435,-7.598218 -5.01055,-7.674983 z m 53.57399,6.751009 6.58461,0.29869 -2.23707,4.766634 c -0.68133,-1.299968 -2.99357,-4.284195 -4.34754,-5.065324 z m 25.96999,2.023649 c -3.16558,0.04417 -5.8445,1.820386 -5.51646,5.273063 0.25951,2.73119 2.59229,4.874031 6.44044,4.563029 4.06806,-0.328777 5.14905,-2.631934 5.04775,-5.25601 -0.0364,-0.943406 -0.60757,-4.471991 -5.66373,-4.579049 -0.10305,-0.0022 -0.20588,-0.0025 -0.308,-10e-4 z m 0.64699,2.345076 c 2.578,0.01178 4.09796,0.826336 4.26589,2.285649 0.19598,1.703036 -1.84756,2.597466 -4.04264,2.749703 -1.8806,0.130425 -4.92344,-0.21559 -5.04517,-2.517159 -0.007,-1.881737 2.12817,-2.433496 4.29224,-2.509924 0.18118,-0.0064 0.35782,-0.0091 0.52968,-0.0083 z m 9.99112,4.575432 -2.03966,2.161625 c 6.36851,4.928785 11.95614,9.9573 17.11368,15.178918 l -3.45199,2.664437 c -0.72651,-5.013183 -4.84754,-6.385275 -7.22333,-6.361885 -0.90016,-4.528948 -2.79714,-6.41292 -4.46174,-7.144267 -2.96052,-1.300715 -5.77724,0.03672 -6.96082,2.105298 -2.33874,4.087578 2.40968,7.486364 6.00636,7.486364 h 0.0522 l -0.0522,-2.968294 v -0.05219 h -0.0522 c -5.74286,0.144225 -4.99532,-2.871906 -4.49688,-3.7052 1.45656,-2.435072 10.09815,-1.038946 8.66304,8.392252 v 0.05219 h 0.0522 c 5.57061,-2.287934 7.65535,1.885691 7.65535,2.863907 l -7.01818,5.382618 1.81798,2.459281 11.40447,-9.005652 3.11402,3.841109 -11.50059,9.335865 1.70894,2.367297 11.51299,-9.068697 c 1.059,1.199425 3.95804,4.740903 5.31286,7.042981 -9.22475,-4.74958 -18.5797,4.211595 -9.42682,11.652002 l 1.32809,-1.942517 c -9.48511,-4.564296 2.82119,-13.095156 9.81852,-5.808431 1.06638,1.110483 1.50823,2.0889 2.34094,3.584794 l -9.32139,4.218347 0.20825,4.009578 c 3.01176,1.71424 5.48849,3.89781 7.3949,6.24923 -4.97289,0.27023 -7.49693,2.45739 -7.81141,2.65617 l 0.65887,1.36632 c 2.80863,-1.93101 6.70656,-2.05373 9.28729,0.40411 l 1.30225,-4.79092 c -1.56359,-2.27227 -4.78108,-5.75635 -7.18664,-7.707025 l 6.66574,-3.228743 c 2.76,4.426418 7.21287,18.504868 7.44657,19.319748 0.70228,2.44878 0.91381,7.66888 -2.30011,8.23206 -3.88026,0.63462 -3.98806,-4.06399 -2.87011,-6.70295 l -3.69694,-0.10387 h -0.0522 v 0.0522 c -0.33941,5.31767 1.78212,7.11568 4.28501,8.31267 -1.61434,1.56227 -2.34346,3.28104 -2.08308,5.15576 0.15622,1.51019 0.93733,2.65557 1.35393,3.07217 l 2.90163,-2.00143 c -2.33486,-1.27702 -2.08475,-5.06654 0.13436,-5.18005 3.36337,-0.17205 4.15801,4.17088 3.8902,5.72368 -0.4307,2.49723 -1.67029,3.72326 -4.9475,3.85351 l -7.0311,0.27957 0.10491,3.05305 13.64826,-0.52038 0.15193,2.8639 3.22874,-0.10387 -0.26045,-5.9371 -4.79092,0.10439 c 4.8488,-4.31591 1.22741,-9.35325 -1.72083,-11.04894 2.51201,-2.11304 3.54628,-5.6509 3.02308,-8.74004 -0.89656,-5.29311 -8.08461,-37.093837 -42.83047,-63.374941 z m -17.99373,1.92598 -1.77095,2.551783 v 0.05219 h 0.0522 c 3.46381,2.24129 7.60919,5.927457 8.38399,10.206612 l 0.9896,-1.614372 C 199.17741,60.910649 195.82022,56.4002 192.75305,53.994117 Z M 60.022124,69.590068 c 0.24458,-0.0027 0.484999,0.0073 0.719336,0.02687 L 58.60619,76.647 c -0.172685,0.568592 -0.454309,1.275749 -0.93741,0.573092 -0.527018,-0.766527 -1.96992,-1.135224 -3.124357,-0.468705 -0.561564,0.324215 -1.006948,0.03993 -0.781348,-0.937411 1.113837,-4.825352 3.707562,-6.110362 6.01307,-6.216675 0.08234,-0.0038 0.164453,-0.0063 0.245979,-0.0072 z m -16.451192,15.5267 -3.209106,5.418274 2.844271,1.577682 c -4.608483,2.688278 -6.486459,6.192309 -7.166488,8.981876 -1.187421,4.87098 1.087243,9.49252 4.648295,10.22522 4.521312,0.93026 6.84147,-4.20966 6.062679,-10.09292 l -3.298507,-0.0522 c 2.064643,4.51914 -0.135294,9.7108 -2.485119,9.00565 -1.849692,-0.55503 -2.589634,-5.56181 -1.724443,-8.78809 1.145786,-4.272594 4.640924,-6.451613 5.615678,-6.935493 0.862157,-0.427989 1.399201,-0.50101 2.291333,0 l 8.00778,4.4974 1.646928,-2.920752 -12.049911,-6.784082 1.562179,-2.603976 z M 32.047604,110.59997 c -0.565165,2.04874 -1.126547,4.09913 -1.698604,6.14588 l 2.76624,0.7152 c -2.854279,3.13882 -5.164297,7.06361 -4.608505,11.46958 0.668939,4.92833 3.999746,7.92577 5.207434,7.55096 3.137836,-0.97382 -0.248207,-10.5064 2.655652,-11.14402 1.079826,-0.23711 3.300044,2.17586 3.697449,6.61355 v 0.0522 l 2.447913,-1.71876 c -0.584416,-3.40448 -2.542366,-8.38296 -5.624463,-7.70702 -2.798257,0.61369 -3.055548,6.95079 -4.270024,6.97839 -1.027329,0.0234 -3.95125,-4.30124 2.23914,-11.45667 l 11.769307,2.76004 h 0.05168 l 0.926041,-3.64732 -13.3196,-3.22668 0.700216,-2.4784 z m 50.513196,110.71262 -1.869653,2.21123 1.400948,1.17409 c -0.86257,1.27832 1.850812,2.82732 2.861324,3.73828 2.736307,2.4667 2.121416,4.57714 0.765845,5.88336 -1.831183,1.7645 -6.235684,1.12526 -5.189348,-3.16467 l -1.87482,-0.20825 c -1.303896,6.70721 3.468242,8.05927 9.946679,7.03006 10.451804,-1.66044 8.123147,4.5218 7.967473,4.79144 l -2.278931,4.81572 2.852022,1.43299 5.571751,-12.34188 c 4.45042,2.04574 14.90777,5.11322 22.18418,6.22804 l -0.20826,1.11466 -17.80976,-0.36432 h -0.0522 l -0.15606,3.59307 v 0.0522 h 0.0522 c 9.29466,0.27071 15.39956,7.39169 16.45585,9.2692 l 2.36161,0.44339 2.32492,-13.58419 c 10.15469,1.61435 21.71021,0.72868 23.27248,0.52038 l 0.10956,1.05989 c -0.72906,0.20831 -15.36203,4.4261 -17.49713,5.10304 h -0.0522 l 1.66605,2.76004 c 9.68601,-1.61434 15.05023,2.76038 16.87287,4.73925 l 3.62097,-0.31781 -0.7705,-10.04642 c 3.43574,-1.58569 7.27878,-1.24235 7.63003,0.62115 0.41432,2.19814 -2.26968,2.63233 -4.1274,2.34818 l 1.19786,2.9161 v 0.0522 h 0.0522 c 5.83135,-1.6661 5.07786,-4.96178 4.80746,-5.74074 -1.37045,-3.94793 -9.79914,-3.04179 -9.93686,-3.02669 l -0.0909,-0.87488 c 4.48789,-0.51811 8.95976,-1.2106 13.13563,-2.33474 l 4.10776,13.97537 3.24683,-1.00769 -4.11447,-13.88184 c 8.54034,-2.18717 18.99599,-7.7305 21.39146,-9.18858 l 0.41651,0.83302 c -4.80764,3.81054 -9.74478,7.46199 -14.52883,11.3006 l 2.96829,2.23914 c 4.53057,-4.7909 16.66403,-3.6451 19.37195,-3.12435 l 1.4552,-1.00046 -7.08018,-11.68404 2.81171,-1.87482 c -0.56488,-0.77972 -1.03016,-1.47342 -1.59215,-2.25516 -32.50738,22.93398 -85.02168,20.40807 -113.64991,-4.22455 z m 5.740218,8.07703 c 1.360477,0.83756 7.611272,4.20611 11.809612,6.08748 l -1.927011,4.11396 c -1.287296,-5.53463 -6.267416,-6.1527 -9.842293,-5.67614 0.833469,-1.22623 0.845925,-3.23851 -0.04031,-4.5253 z m 105.714482,5.2312 2.97346,4.78576 c -2.87831,-0.32909 -5.13723,-0.34522 -8.19382,-0.0754 z m -2.23656,9.8981 c -0.28117,-8.1e-4 -0.56347,0.009 -0.84439,0.0289 -1.1237,0.0804 -2.22139,0.32551 -3.10472,0.71624 l 0.51366,2.00453 c 1.45788,-1.01177 4.41859,-1.02842 5.903,-0.56069 l -0.0532,-1.88671 c -0.73927,-0.20203 -1.57081,-0.29986 -2.41432,-0.30231 z m -75.10859,3.04013 h 7.39489 l -0.93741,5.3113 c -0.41661,-0.46868 -3.54129,-4.11356 -6.45748,-5.3113 z m 34.7865,0.52038 0.56793,6.54999 c -0.84095,-0.98273 -4.41296,-3.35267 -7.75405,-4.25866 z m -39.99394,3.48919 -0.36432,2.23914 c 1.62058,0.33073 3.68887,1.71018 4.79093,2.81224 l 0.83302,-1.87483 c -1.30464,-1.72824 -3.53037,-2.81033 -5.25963,-3.17655 z" /><path
           id="path36"
           style="opacity:1;vector-effect:none;fill:#ec2227;fill-opacity:1;fill-rule:evenodd;stroke:none;stroke-width:0.13786;stroke-opacity:1;stop-color:#000000;stop-opacity:1"
           d="m 39.834519,164.99458 -3.070097,6.7815 -7.399031,-0.82269 5.501473,5.01571 -3.069064,6.78254 6.470406,-3.68195 5.50199,5.01468 -1.502234,-7.29154 6.469373,-3.68298 -7.399032,-0.82424 z m 206.080961,0 -1.50378,7.29103 -7.39903,0.82424 6.46937,3.68298 -1.50223,7.29154 5.50198,-5.01468 6.47041,3.68195 -3.06906,-6.78254 5.50147,-5.01571 -7.39903,0.82269 z m -190.2349,33.42587 -3.070097,6.78201 -7.399031,-0.8232 5.500956,5.01571 -3.068546,6.78253 6.469889,-3.68194 5.502506,5.01468 -1.50275,-7.29155 6.469889,-3.68298 -7.399032,-0.82424 z m 174.38884,0 -1.50378,7.29102 -7.39903,0.82424 6.46988,3.68298 -1.50275,7.29155 5.50251,-5.01468 6.46989,3.68194 -3.06855,-6.78253 5.50096,-5.01571 -7.39903,0.8232 z" /></g><path
         id="path38"
         style="font-variation-settings:normal;vector-effect:none;fill:#fcee23;fill-opacity:1;fill-rule:evenodd;stroke-width:0.264583;stroke-linecap:butt;stroke-linejoin:miter;stroke-miterlimit:4;stroke-dasharray:none;stroke-dashoffset:0;stroke-opacity:1;-inkscape-stroke:none;stop-color:#000000"
         d="m 104.33162,82.075094 c -0.48165,0.11917 -0.97805,1.072376 -1.17668,1.429886 -0.37074,0.529648 -0.95338,1.800698 -0.42374,2.277381 0.47669,0.529646 1.43017,8e-6 2.01279,0.105937 0.47668,0.158893 1.53582,0.370826 1.42989,1.059366 -0.21186,0.05297 -0.79426,-0.105906 -0.68833,0.31781 0.10593,0.264824 0.8472,0.47648 0.9002,0.794267 0.42371,1.535977 -1.74774,0.370798 -2.48925,0.63562 -0.21186,0.05296 -0.47699,0.529697 -0.68885,0.741557 -0.21186,0.211859 -0.52944,0.423768 -0.68833,0.741557 -0.053,0.158894 -0.0527,0.264853 -0.15864,0.423747 -0.15888,0.211857 -0.15888,0.212149 -0.21188,0.476973 0,0.10593 0.15864,0.3173 0.0527,0.42323 -0.1589,0.317788 -0.74157,0 -0.95343,0 -0.42372,0 -0.74132,0.424016 -1.11207,0.58291 -0.317795,0.158895 -0.476731,0.158923 -0.635623,0.423747 -0.05297,0.211859 0.105915,0.37079 -0.211874,0.529683 -0.264824,0.158894 -0.741309,0.05299 -0.900203,0.317811 -0.211859,0.476682 0.476479,0.688337 0.794266,0.794266 l 0.265101,0.05323 c 0.370751,0.158894 0.158887,0.370796 -0.105937,0.63562 -0.158894,0.211859 -0.476988,0.317562 -0.688847,0.476457 -0.10593,0.105929 -0.582663,0.264853 -0.741557,0.423747 -0.05297,0.158893 -0.105676,0.264852 -0.158646,0.423746 -0.105929,0.158895 -0.318067,0.158663 -0.371037,0.37052 -0.10593,0.476683 0.529683,0.370806 0.529683,0.741557 0.05296,0.264824 -0.741549,0.318094 -0.63562,0.688847 0.05297,0.370754 0.106194,0.688351 0.159164,1.00614 0.05296,0.370753 0.105959,0.582415 0.423746,0.900204 0.264824,0.21186 0.741323,0.68884 1.112077,0.68884 0.105929,-0.053 0.265115,-0.15887 0.476974,-0.21187 0.158892,0 0.264344,0.15864 0.529166,0.0527 0.264827,-0.15889 0.212157,-0.688311 0.688847,-0.476454 0.31779,0.211854 0.47673,0.794544 0.74156,1.165304 0.26482,0.52964 0.47649,1.05938 1.00614,1.37717 0.47668,0.42372 1.11209,0.15894 1.42988,0.63562 0.21185,0.31779 0.63562,0.79404 0.52969,1.16479 -0.42371,-0.053 -0.42347,0.47673 -0.15865,0.63562 0.37075,0.21186 0.84751,0.053 1.05937,0.52968 0.15889,0.21186 -0.0529,0.58267 0.42374,0.8475 0.42372,0.2118 0.95321,2.8e-4 1.42989,0.2651 0.37076,0.15889 0.63565,0.68859 1.05937,0.84749 0.63558,0.15889 0.90023,-0.31808 1.32395,-0.58291 0.26482,-0.15889 0.21215,-0.15863 0.47697,0.0532 0.1589,0.15889 0.26487,0.42374 0.52969,0.42374 0.63556,0.10593 -0.0532,-0.47698 0.15864,-0.68884 0.21186,-0.26482 0.63537,0.31782 0.79427,0.52968 0.21186,0.26483 0.31808,0.63564 0.58291,0.95343 0.52965,0.74151 -1.05959,0.90053 -0.37104,1.80093 0.15889,0.21184 0.42376,0.31782 0.63562,0.52968 0.1589,0.15889 0.26487,0.5824 0.52969,0.68833 0.37075,0.15887 0.68887,-0.10571 1.11259,-0.0527 0.21186,0.053 0.47672,0.21163 0.63562,0.37052 0.31779,0.37075 0.10592,0.90022 -0.21187,1.21801 -0.31779,0.26483 -0.42375,0.26488 -0.42375,0.74156 0,0.26482 -0.3181,0.74178 -0.68885,0.79478 -0.21186,0.10593 -0.47672,0.053 -0.63562,0 -0.42372,-0.053 -0.63562,-0.0532 -0.63562,-0.37103 0,-0.37074 -0.10572,-0.47643 -0.68833,0.0532 -0.37075,0.31779 -0.42352,0.37077 -0.9002,0.10594 -0.37075,-0.15889 -0.84779,-0.74181 -1.32447,-0.58291 -0.15889,0.10593 -0.21164,0.47668 -0.47646,0.52968 -0.10593,0 -0.2651,-0.0527 -0.37103,-0.15864 -0.26482,-0.15889 -0.21165,-0.58269 -0.68833,-0.52969 -0.37075,0.37076 -1.00618,1.53574 -1.53583,0.5824 -0.31779,-0.47669 -0.31811,-0.63533 -1.00665,-0.68833 -0.26482,-0.0529 -0.63564,-0.10619 -0.95343,0.0527 -0.84743,0.42372 -0.10592,1.37747 0,2.06602 0.053,0.47668 -0.10595,1.05913 -0.31781,1.42989 -0.26483,0.42371 -0.58217,0.58242 -0.52917,1.11207 0.053,0.21186 0.21184,0.79456 -0.31781,0.74156 -0.1589,-0.053 -0.74158,-0.74127 -1.05937,-0.37052 -0.106,0.10593 0.31753,0.5297 -0.0532,0.74156 -0.21186,0.15889 -0.63564,-0.21186 -0.8475,0 0.21186,0.26482 0.84777,0.42351 1.00666,0.79426 0.1589,0.42366 -0.10622,0.52946 -0.47697,0.47646 -0.63558,-0.21186 -1.00618,-0.58242 -1.535827,-1.00614 -0.423716,-0.26482 -0.582692,-0.84749 -1.165303,-0.84749 -0.529648,-0.053 -1.641972,0.3181 -0.95343,0.90072 0.264822,0.26482 0.741813,0.42351 0.794783,0.9002 0,0.63557 -0.582939,0.42377 -1.006657,0.63562 -0.264824,0.1589 -0.529443,0.37054 -0.794267,0.68833 -0.317787,0.42372 -0.476994,0.84778 -0.794783,1.32447 -0.158894,0.31779 -0.317579,0.5824 -0.68833,0.79426 -0.264824,0.21186 -0.68833,0.2119 -0.68833,0.63562 0,0.26482 0.370534,0.52943 0.582393,0.68833 0.370754,0.21186 0.63562,0.42404 0.63562,0.90072 0.05297,0.26482 0.26486,0.63539 0.529684,0.90021 0.211857,0.26483 0.158661,0.47698 0.37052,0.68884 0.211859,0.21186 0.476987,0.42352 0.688847,0.68833 0.794469,1.05929 2.065311,1.53614 2.85977,2.33061 0.52965,0.52965 1.32425,0.79403 2.0128,1.05885 0.95336,0.31779 2.01259,-0.0527 2.80706,0.47698 0.31779,0.26482 0.31811,0.37074 0.90072,0.42374 0.47669,0 0.84701,0.10571 1.27073,0.0527 0.21186,-0.053 0.47673,-0.053 0.74155,0 0.63558,0.10593 1.0596,0.79458 1.1126,1.48312 0.053,0.63558 0.47663,2.38332 -0.74156,2.48925 -0.21186,0.053 -0.90045,-0.15862 -0.74156,0.2651 0.053,0.1589 0.6886,0.37079 0.8475,0.52968 0.21178,0.21186 0.15865,0.21164 0.26458,0.47646 0.053,0.26483 0.26509,0.58268 0.15916,0.95343 -0.053,0.15889 -0.21187,0.21189 -0.21187,0.42375 0,0.15889 0.15866,0.42375 0.37052,0.52968 0.053,0.26482 -0.47646,0.74158 -0.58239,1.05937 -0.1589,0.42372 -0.26489,0.90046 -0.8475,1.05936 -0.4237,0.106 -1.16533,0.15864 -1.58905,0.0527 -0.52965,-0.21186 -1.37687,-0.4237 -0.68833,0.31781 0.26483,0.31779 0.68833,0.52998 0.5824,1.00666 -0.21186,0.63558 -0.84752,0.0527 -1.27124,0.47646 0,0.47668 0.68886,0.26487 0.90072,0.63562 0.10593,0.1589 -2.8e-4,0.47647 -0.15917,0.68833 -0.21186,0.21186 -0.52969,0.31782 -0.74155,0.52968 -0.15889,0.1589 -0.26459,0.42402 -0.37052,0.68885 -0.1589,0.31779 -0.5299,1.42989 0.15864,1.53582 0.58262,0.053 0.0533,-1.58878 0.58291,-1.32395 0.26482,0.15889 0.47645,0.47648 0.26459,0.79427 -0.10585,0.15889 -0.21165,0.42402 -0.15865,0.58291 0.15889,0.15889 0.26486,-0.2121 0.52968,-0.2651 0.31779,-0.053 0.68861,0.26511 0.8475,0.47697 0,0.26482 -2.5e-4,0.52944 0.15864,0.68833 0.1589,0.21186 0.74157,0.26487 0.8475,0.52969 0.21186,0.47666 -0.79446,0.6886 0.21187,0.95343 0.21186,0.053 0.58268,0.10593 0.84749,0 0.37075,-0.10593 0.31783,-0.42378 0.52969,-0.63562 0.42371,-0.31779 0.58268,0.31783 0.52968,0.63562 -0.053,0.42369 -0.42378,0.84724 -0.74156,1.11207 -0.31777,0.15889 -0.31807,0.10596 -0.47697,0.42375 0,0.21185 0.10592,0.21189 -0.10594,0.42375 -0.26482,0.21186 -0.90019,0.15868 -0.68833,0.68833 0.10593,0.21185 1.27119,0.90072 0.42375,1.00665 -0.37075,0.053 -0.79454,-0.7945 -1.1653,-0.42374 -0.15888,0.15889 -0.0527,0.79454 0.0532,0.95343 0.37075,0.37076 0.68811,0.47647 1.16479,0.68833 0.31779,0.10593 0.58294,0.37105 0.79478,0.68884 0.31778,0.42372 0.5824,0.52965 0.5824,-0.10593 0,-0.52965 3e-4,-0.90043 0.58291,-0.42375 0.21186,0.26483 0.31759,0.79425 0.79427,0.58239 0.31777,-0.15889 0.26487,-0.47644 0.63562,-0.26458 0.26482,0.21186 0.37054,0.68834 0.68833,0.9002 0.26483,0.1589 0.47697,-0.0532 0.47697,0.26459 0,0.74154 -0.58268,0.63584 -0.95343,0.68884 -0.42372,0.10593 -0.63565,0.42379 -0.84749,0.8475 -0.26482,0.42372 -0.21159,0.74158 -0.26459,1.1653 0,0.21186 0,0.31757 -0.10593,0.47646 -0.10593,0.1589 -0.2121,0.10595 -0.2651,0.31781 -0.10593,0.37076 0.2651,1.00641 0.37103,1.37717 0.21186,0.37075 0.5824,0.68862 0.5824,1.05937 0,0.21186 -0.10593,0.31782 0,0.52968 0.10593,0.15889 0.47647,0.26433 0.58239,0.42323 0.21186,0.26482 0.74185,0.63591 0.68885,1.00666 -0.10593,0.31779 -0.52997,0.63563 -0.79479,0.84749 -0.21186,0.10593 -0.794,0.3176 -0.6351,0.68833 0.10593,0.21186 0.52944,0.31809 0.68833,0.47698 0.31779,0.26483 0.15894,0.47648 0.10594,0.68833 -0.10587,0.52965 -0.424,0.63539 -0.15917,1.11208 0.15889,0.21183 0.15917,0.42401 0.2651,0.68884 0.10593,0.26482 0.21186,0.31783 0,0.52969 -0.053,0.21185 -0.37074,0.21162 -0.42374,0.47645 0,0.21186 0.52944,0.58293 0.68833,0.79479 0.3178,0.52963 0.37103,0.95295 0.2651,1.48259 -0.10593,0.42372 -0.47675,0.79482 -0.42375,1.21853 0.053,0.42372 0.58262,0.63565 0.63562,1.05937 0,0.42372 -0.42401,0.42326 -0.58291,0.84698 -0.10593,0.26482 0.21188,0.68861 0.31781,0.95343 0.26483,0.47669 0.95344,0.63565 1.05937,1.1653 0.10593,0.26482 -0.26483,0.58267 0,0.95343 0.58261,0.47668 0.31779,0.42351 0.10593,0.9002 -0.1589,0.21186 -0.52968,0.47674 -0.52968,0.74156 0,0.26483 0.68856,0.5297 0.74156,0.84749 0.053,0.1589 -0.21162,0.47699 -0.37052,0.68885 -0.31779,0.31779 -1.00663,0.3176 -0.58291,1.00614 0.26482,0.42372 0.52995,0.58244 0.68884,1.11208 0.26481,0.63558 -0.0529,1.43018 0.31781,2.11873 0.26483,0.47668 0.15894,0.63567 0.10594,1.1653 0,0.10593 -0.21212,0.31782 0.0527,0.42375 0.15889,0.053 0.37104,-0.10594 0.47697,-0.21187 0.21186,-0.26482 0.31758,-0.63565 0.5824,-0.95343 0.26483,-0.37076 0.42403,-0.68836 0.37103,-1.11208 -0.053,-0.47668 -0.31808,-0.63589 -0.68884,-0.90072 -0.42372,-0.21186 -0.42349,-0.42352 -0.26459,-0.9002 0.10593,-0.31779 0.21188,-0.58242 0.21188,-1.00614 0.053,-0.37075 -0.15915,-0.95346 0.15864,-1.27124 0.47669,0.31778 0.10573,0.84751 0.79427,1.1653 0.26483,0.21186 0.63588,0.31752 0.79478,-0.15916 0.15889,-0.47669 -0.68883,-1.00616 -0.47697,-1.21802 0.26483,-0.26483 1.05959,0.26487 1.11259,0.52969 0.10593,0.42372 -0.26487,0.90024 -0.21187,1.32395 0,0.1589 -2.9e-4,0.21188 0.0527,0.31781 0,0.053 0.63562,0.0527 0.63562,0.15864 -0.053,0.21186 -0.5824,0.10595 -0.68833,0.21188 -0.26482,0.26482 -0.26482,0.42376 0,0.74155 0.37076,0.37076 0.8475,0.26489 0.95343,0.8475 0.053,0.21186 -0.21209,2.11893 0.37052,1.32446 0.21186,-0.15887 0.21214,-0.47672 0.37104,-0.74155 0.10593,-0.15889 0.37052,-0.26512 0.47645,-0.47698 0.1589,-0.31779 -0.37078,-0.63564 -0.52968,-0.95343 -0.15889,-0.37075 -0.26454,-1.5358 0.37104,-1.21801 0.21178,0.053 0.26458,0.6886 0.26458,0.84749 0.10593,0.21186 0.10595,0.52945 0.31781,0.79427 0.15889,0.26483 0.26481,0.26487 0.31781,0.63562 0.053,0.15889 0.10623,0.52996 0.0532,0.68885 -0.10593,0.42372 -0.47675,0.74105 -0.8475,0.95291 -0.1589,0.15889 -0.31781,2e-5 -0.31781,0.31781 0,0.31779 0.31757,0.42376 0.47646,0.52969 -0.15889,0.37074 0.26481,0.52995 0.31781,0.79478 0.10593,0.52964 3.1e-4,0.90019 0.79478,0.68833 0.21186,-0.053 0.31757,-0.10595 0.47646,-0.31781 0.1589,-0.15889 0.31782,-0.21163 0.52968,-0.37052 0.42372,-0.21186 0.26458,-0.52996 0.15865,-0.90072 -0.053,-0.37075 0.0532,-0.63513 0.0532,-1.05885 0,-0.47668 -0.21189,-0.74159 -0.42375,-1.16531 -0.10593,-0.26482 -0.21183,-1.27121 0.42375,-0.84749 0.21186,0.10593 0.15869,1.11206 0.68833,0.79427 0.31779,-0.1589 0.3178,-0.95345 0.21187,-1.27124 -0.053,-0.37075 -0.31757,-0.63565 -0.47646,-1.05937 -0.21186,-0.58261 0.37077,-0.58217 0.21188,-1.16479 -0.053,-0.37075 -0.52969,-0.58268 -0.63562,-0.95343 -0.053,-0.37076 0.10568,-0.42376 0.26458,-0.63562 0.15894,-0.21186 10e-6,-0.42376 0.10594,-0.63562 0.15889,-0.42372 0.63563,-0.31778 0.84749,0.10594 0.26483,0.47668 2.7e-4,0.84727 0.2651,1.32395 0.21185,0.37075 0.21165,0.84752 0.15865,1.27124 0,0.10593 -0.4767,1.11208 -0.31781,1.11208 0.63558,0.10593 0.74183,-1.27101 1.00665,-1.64176 0.47669,-0.68854 0.84746,0.79429 0.31781,1.21801 -0.21186,0.21186 -0.31781,0.053 -0.42374,0.42375 v 0.37103 c -0.053,0.21186 -0.2651,0.2646 -0.2651,0.47646 0,0.42372 0.68886,0.2651 1.00665,0.2651 0.21186,0 0.42325,-0.0532 0.63511,0.0527 0.21186,0.053 0.31782,0.31804 0.52968,0.37104 0.37075,0.053 0.31782,-0.42402 0.52968,-0.68885 0.10593,-0.21189 0.15888,-0.3705 0.21188,-0.0527 0.053,0.47668 -0.15888,1.00643 -0.21188,1.37718 -0.053,0.1589 2.9e-4,0.47647 -0.0527,0.68833 -0.10593,0.053 -0.2121,0.15917 -0.2651,0.2651 -0.053,0.15889 -0.053,0.37028 0.10594,0.52916 0.26483,0.31779 1.11235,0.21211 1.27124,-0.26458 0.053,-0.21186 2.4e-4,-0.4235 -0.15865,-0.58239 -0.1589,-0.21186 -0.42375,-0.10596 -0.52968,-0.42375 -0.0529,-0.10593 0.0527,-0.42375 0.0527,-0.52968 0.10593,-0.31778 0.63589,-1.21822 0.79478,-0.52969 0.1589,0.26482 -0.15916,0.47674 -0.15916,0.74156 0,0.1589 0.21188,0.47673 0.31781,0.63562 0.15887,0.21186 0.26487,0.21138 0.21187,0.52917 -0.053,0.21186 -0.10592,0.37104 0.10594,0.47697 0.68854,0.26483 0.4765,0.31779 0.9002,0 0.21186,-0.10593 0.21215,-0.26485 0.37104,-0.42375 0.10593,-0.21184 -2.4e-4,-0.68833 0.26459,-0.68833 0.10591,0.053 0.31783,0.5824 0.52968,0.5824 -0.053,-0.42371 0,-0.84752 0,-1.27124 0,-0.74151 -0.1057,-1.11212 -0.37052,-1.7477 -0.15889,-0.26482 -0.21189,-0.58241 -0.42375,-0.9002 -0.10593,-0.1589 -0.37053,-0.37079 -0.47646,-0.52969 -0.15888,-0.31779 -0.0532,-0.21189 0.15865,-0.52968 0.1589,-0.21186 0.1057,-0.42402 0.26458,-0.58291 0.42372,0.10593 0.3181,0.26512 0.26511,0.58291 0,0.21186 -0.15888,0.68858 0.21187,0.52968 0.26482,-0.053 0.31752,-0.58265 0.37052,-0.74155 0.053,-0.15889 0.31804,-0.7945 0.37104,-0.31781 l -0.0532,-0.47698 c 0.10593,0.21186 0.053,0.6359 0.21187,0.90072 0.26483,-0.52964 0.10625,-1.05936 0.90072,-0.95343 -0.053,1.05929 -0.26482,2.01235 0,3.07165 0.053,0.15889 0.15866,0.63588 0.26459,0.79478 0.21186,0.21186 0.42402,0.10595 0.58291,0.21188 0.15889,0.10593 0.26484,0.31782 0.42374,0.42374 0.10593,-0.26482 0,-0.95344 -0.10593,-1.1653 -0.31774,-0.37075 -0.63587,-0.21191 -0.37104,-0.84749 0.15889,-0.52965 0.42402,-0.95319 0.79478,-1.21802 0.21186,-0.053 0.74131,-0.63584 0.90021,-0.68884 0.52965,-0.053 -0.21217,0.68886 -0.15917,0.90072 0.053,0.31779 2.4e-4,0.47616 -0.26458,0.52916 -0.21186,0.10593 -0.26485,0.15888 -0.42375,0.21188 -0.37075,0.21186 -0.26481,0.42403 0.10594,0.79478 0.1589,0.21186 0.52945,0.52968 0.79427,0.52968 0.10593,-0.74149 0.2119,-1.16534 0.74155,-1.69498 0.68854,-0.26483 -0.0527,1.16507 -0.15864,1.53582 -0.10593,0.52965 -0.42403,0.37081 -0.79479,0.74156 -0.31772,0.37075 -0.58238,1.11262 -0.37052,1.53634 0.37075,0.84744 1.32397,0.15886 1.53583,-0.42375 0.15889,-0.52965 0.37105,-0.79481 0.68884,-1.21853 0.26483,-0.26482 0.42351,-0.47673 0.68833,-0.74156 0.21186,-0.15889 0.42401,-0.31755 0.58291,-0.47645 0.15889,-0.26482 0.74104,-0.74159 0.74104,-1.05937 0,-0.52965 -0.89992,-1.00642 -0.52916,-1.27124 0.58261,-0.37075 0.84722,0.15892 0.68833,0.52968 -0.053,0.26482 0.42376,0.26511 0.74155,0.37104 0.31778,0.10593 0.31757,0.15866 0.5824,0.37052 0.37075,0.31778 1.11235,0.42396 1.37717,-0.15865 0.1589,-0.42372 -0.0529,-0.95371 -0.10593,-1.32446 0.37076,0.21183 0.52971,0.15915 0.95343,-0.0527 0.10593,-0.053 0.52944,-0.42374 0.68833,-0.21188 0.10593,0.26482 -0.5294,0.5824 -0.5824,0.68833 -0.42372,0.74151 0.26488,1.21825 0.95343,0.8475 0.63557,-0.42372 0.58268,-0.68863 0.8475,-1.27124 0.21186,-0.42372 0.4235,-0.42379 0.68833,-0.95343 0.15889,-0.47669 0.7948,-0.74133 1.11259,-1.21802 0.31778,-0.47668 0.37054,-0.95345 0.68833,-1.37717 0.21186,-0.47668 0.84722,-0.52973 0.68833,-1.16531 -0.10593,-0.52964 -0.63538,-0.84752 -0.9002,-1.37717 -0.26481,-0.52965 -0.42374,-1.05915 -0.31781,-1.64176 0.26482,-0.84744 -0.1587,-0.90023 -0.90021,-1.21802 -0.74149,-0.26482 -0.74151,-0.63563 -0.10593,-0.84749 0.58261,-0.10593 0.42351,-0.21191 0.68833,-0.74156 0.47668,-0.26483 -0.10565,-1.16533 -0.15865,-1.37717 0.31779,0.37074 0.9002,0.63592 0.9002,1.21853 0,0.4237 -0.79426,0.68836 -0.68833,1.11207 0.10593,0.42372 0.6881,0.0529 0.95292,0.10594 0.63558,0.1589 0.95344,1.00643 1.1653,1.58905 0.2118,0.68854 0.2651,1.42968 0.2651,2.11822 0.053,0.74151 -0.63561,1.21832 -0.42375,1.90686 0.1589,0.47668 1.00611,0.26489 0.68833,0.95343 -0.1589,0.37075 -0.8475,0.52974 -0.95343,1.27124 0,0.21186 0.15916,0.47647 0.0532,0.68833 -0.053,0.10592 -0.26481,0.10594 -0.31781,0.21187 -0.0529,0.053 -0.10594,0.31782 -0.10594,0.42375 0,0.1589 -0.0529,0.31807 -0.10593,0.47697 -0.10593,0.15889 -0.21188,0.37079 -0.21188,0.52968 -0.10586,0.10593 -0.10616,0.31752 -0.15916,0.37052 l -0.26458,0.68833 c -0.21186,0.21186 -0.31805,0.42377 -0.0532,0.74156 0.1589,0.15889 0.47698,0.15893 0.58291,0.52968 0.10593,0.1589 0.10594,0.37105 0.21187,0.47698 0.21186,0.26482 0.1057,0.21186 0.37052,0 0,-0.053 1e-5,-0.21188 0.10594,-0.31781 0.10593,-0.053 0.26481,-2.3e-4 0.31781,-0.0532 0.37075,-0.15889 0.42377,-0.47648 0.74156,-0.79427 0.31778,-0.37075 0.6359,-0.42402 1.00666,-0.68884 0.37073,-0.31779 0.37054,-0.68835 0.68833,-1.00614 0.2648,-0.31779 0.74133,-0.37056 0.68833,-1.00614 -0.0529,-0.31779 -0.37076,-0.63591 -0.10594,-1.00666 0.37075,-0.42372 0.84775,-0.37083 0.68885,-1.05937 -0.053,-0.21186 -0.21188,-0.31757 -0.21188,-0.58239 0,-0.21186 0.10594,-0.47648 0.10594,-0.68833 0.053,-0.58262 0.10595,-1.11263 0.31781,-1.64228 0.21186,-0.58262 0.42372,-0.95345 0,-1.37717 -0.26482,-0.37075 -0.79482,-0.47623 -1.11259,-0.84698 -0.31779,-0.37076 -0.37075,-0.84779 -0.42375,-1.32447 0,-0.31779 2.2e-4,-1.11208 -0.47646,-1.21801 -0.31779,-0.10593 -0.58267,0.58239 -0.95343,0.47646 -0.42371,-0.10593 -0.21187,-0.63564 -0.21187,-0.95343 0.10592,-0.84743 0.26479,-2.06556 -0.42375,-2.80707 -0.47669,-0.52965 -1.0594,-0.10565 -1.58905,-0.15865 -1.48301,-0.21184 0.37109,-1.32399 0.79478,-1.85363 0.37076,-0.42372 0.5827,-0.84774 1.16531,-0.68885 0.37075,0.10593 0.63539,0.42403 0.79426,0.79479 0.31779,0.63557 0.26488,1.42969 0.63563,2.11821 0.4237,0.79447 1.32425,1.16534 2.01279,1.69499 0.63558,0.47668 0.58268,0.84754 1.05937,1.48312 0.37075,0.47668 1.2178,1.00638 1.80041,0.74155 0.52965,-0.26482 0.79455,-0.95364 1.37717,-0.2651 0.15889,0.21186 0.47699,0.37079 0.68885,0.52969 0.31779,0.26482 1.27074,0.58291 1.58853,0.58291 0.52965,-0.10593 0.68887,-0.58267 1.00666,-0.95343 0.42372,-0.37075 0.90044,-0.52974 0.63562,-1.16531 -0.31779,-0.47669 -1.21826,-0.47652 -1.05937,-1.11207 0.1589,-0.74151 1.27102,0.15865 1.7477,0.26458 0.63558,-0.37075 0.10621,-0.74158 0.37104,-1.05937 0.37075,-0.52964 0.52945,0.47698 1.00614,0.58291 0.58261,0.053 0.42377,-0.3708 0.74155,-0.63562 0.42372,-0.37075 0.84751,0.3175 1.05937,-0.37104 0.10593,-0.21184 -0.3178,-0.31782 -0.21187,-0.52968 0.053,-0.26483 0.26459,-0.37079 0.47645,-0.52968 0.68855,-0.42372 0.1062,-0.74108 0.2651,-1.16479 0.21186,-0.52965 0.84726,-0.68862 1.32395,-1.1653 -0.31779,0.21186 -0.52944,0.74131 -0.68833,0.9002 -0.10593,0.1589 0.10593,0.58266 0,0.84749 -0.42372,0.7415 -0.58289,1.48292 -0.2651,2.27739 0.10593,0.31777 0.47647,0.58267 0.68833,0.84749 0.31779,0.21186 0.52971,0.47673 0.8475,0.74156 0.42372,0.37075 0.52996,0.79455 0.79478,1.1653 0.47669,0.63558 1.00618,1.16534 1.53583,1.69499 0.84742,0.95334 1.74797,1.74778 1.90686,3.12487 0.053,0.74151 0.21187,1.64155 0.21187,2.33009 0,0.21186 0.0528,1.43037 0.68833,0.90072 0.26482,-0.26482 -0.26487,-0.90074 -0.21187,-1.21853 0.15889,-0.58261 0.68887,-0.68836 1.11259,-1.11208 0.26482,-0.26482 0.42326,-0.63538 0.74104,-0.9002 0.52965,-0.31779 0.68864,-0.47697 1.37718,-0.47697 l 1.48311,-0.31781 c 0,0.68854 -1.74774,0.58293 -2.27738,1.00665 -0.58262,0.47668 -0.9535,1.8007 -1.80092,1.7477 -0.37075,0.58261 0.68853,1.05943 0,2.11873 -0.58261,0.84744 -0.21158,1.42969 0.47697,2.22416 0.10593,0.15889 0.21158,0.2651 0.26458,0.37103 0.21186,0.31779 0.21188,0.79456 0.31781,1.16531 0.15887,0.26482 -2.2e-4,0.52969 -0.0532,0.74155 -0.053,0.21186 0.10622,0.4235 0.0532,0.68833 0,0.15889 -0.0529,0.31783 0.10594,0.52969 0.10585,0.26482 0.21165,0.37054 0.15865,0.68833 0,0.21186 -0.0527,0.31782 -0.0527,0.52968 0.10593,0.42371 0.31779,0.79456 0.10593,1.27124 0,0.1589 -0.10616,0.15917 -0.15916,0.2651 -0.053,0.053 2.9e-4,0.26459 -0.0527,0.37052 0,0.21186 -0.0532,0.58267 0.0527,0.8475 l 0.68885,1.37717 c 0.21186,0.42372 0.5297,0.68836 0.84749,1.11208 0.1589,0.21186 0.15865,0.5297 0.26458,0.84749 0.15889,0.42372 0.10593,0.9005 0,1.37718 -0.053,0.10593 -0.10564,0.31782 -0.15864,0.52968 -0.15889,0.26482 -0.31783,0.58267 -0.52969,0.8475 -0.15889,0.15889 -0.52997,0.42377 -0.47697,0.74155 -0.053,0.21186 2.6e-4,0.42324 0.15916,0.52917 0.15889,0.10593 0.3708,0.15892 0.52969,0.31781 0.10593,0.053 0.21188,0.15887 0.31781,0.21187 0.37076,0.47668 0.58241,1.00644 0.79426,1.58905 0.21186,0.63558 0.15894,1.16535 0.10594,1.80093 0,0.79447 -0.1059,1.64208 0.42375,2.3306 0.10593,0.10593 0.26485,0.31782 0.42374,0.42375 0.1589,0.10593 0.26486,0.26486 0.42375,0.42375 l 0.58239,0.58239 c 0.21186,0.21186 0.42402,0.37053 0.58291,0.58239 0.26483,0.26482 0.47647,0.52971 0.68833,0.8475 0.15889,0.42372 0.42403,0.74183 0.68885,1.11259 0.31779,0.42372 0.15891,0.89998 0.31781,1.37666 0.10593,0.31779 0.63538,0.15919 0.79427,0.47698 0.10584,0.21185 0.10564,0.42376 0.15864,0.63562 0.053,0.26483 0.47699,0.52943 0.68885,0.68833 0.10593,0.10592 0.4235,0.47669 0.58239,0.10593 0,-0.10592 -0.0527,-0.21162 -0.15864,-0.37052 -0.0529,-0.15889 -0.0529,-0.31782 -0.10594,-0.52968 -0.10593,-0.37075 -0.0532,-0.74185 -0.2651,-1.11259 -0.21186,-0.26482 -0.37053,-0.58242 -0.58239,-0.90021 -0.1589,-0.21186 -0.37105,-0.31785 -0.47698,-0.74155 0,-0.15889 -0.0529,-0.42351 -0.10593,-0.68834 0,-0.15887 -0.15888,-0.31781 -0.21188,-0.42374 -0.21186,-0.42372 -0.1584,-0.84752 -0.31729,-1.27124 0,-0.10593 -0.15917,-0.31782 -0.2651,-0.42375 -0.15889,-0.26482 -0.42349,-0.5297 -0.58239,-0.84749 -0.21186,-0.42372 -0.4767,-0.90024 -0.21188,-1.42989 0.21186,-0.31779 0.63539,-0.5297 0.90021,-0.84749 0.26483,-0.31779 -0.15866,-0.68861 -0.37052,-0.95343 -0.42372,-0.37075 -0.26482,-0.84753 0,-1.27124 0.15889,-0.42372 0.58214,-0.26487 0.84697,-0.52969 0.2118,-0.26483 0.0532,-0.58267 0.2651,-0.84749 0.10593,-0.26482 0.31758,-0.47646 0.68833,-0.47646 0.21186,0 0.47673,0.15894 0.63562,0.10594 0.21187,-0.10593 0.15917,-0.52944 0.15917,-0.68833 0,-0.47669 0.10597,-0.74185 0.74155,-0.68885 0.63553,0.10593 0.58241,0.68862 0.68833,1.05937 0.1589,0.42372 0.37055,0.84726 0.79427,1.21801 0.47668,0.4237 0.90077,-0.10571 1.4304,-0.0527 0.15889,0 0.52943,2e-5 0.68833,0.21188 0.15889,0.1589 0.31804,0.42349 0.37104,0.58239 0.21178,0.63557 -0.10616,1.32399 0.26458,1.85363 0.10593,0.21186 0.42377,0.47697 0.74156,0.37104 0.21186,0 0.26459,-0.15918 0.37052,-0.37104 0.10593,-0.26481 0.2119,-0.21189 0.42375,-0.31781 0.26483,0 0.37075,-0.10543 0.42375,-0.31729 0.10591,-0.42372 -0.79452,-1.8009 -0.52969,-1.48311 0.053,0.053 -0.31781,-0.63592 -0.31781,-1.21853 0.053,-0.68854 -0.15866,-1.42968 -0.37052,-2.11822 -0.21186,-0.79447 10e-6,-1.64207 0.10594,-2.43654 0,-0.58261 -0.26483,-1.05941 -0.10594,-1.58905 0.15887,-0.63558 0.21187,-1.27105 0.21187,-1.95957 -0.0529,-0.37076 -0.21164,-0.84754 -0.15864,-1.27124 0.053,-0.21186 0.15865,-0.37054 0.26458,-0.5824 0.31779,-0.58261 0.42347,-1.37721 0.15865,-1.90686 -0.1589,-0.21186 -0.47622,-0.37055 -0.63511,-0.68833 -0.15888,-0.26483 -0.26512,-0.63564 -0.47697,-0.95343 -0.26483,-0.47668 -0.10592,-0.90075 0.10594,-1.4304 0.21185,-0.42372 0.47674,-0.74159 0.42374,-1.16531 -0.053,-0.79447 -0.31783,-1.53587 -0.52968,-2.27738 -0.053,-0.21186 -0.15887,-0.42376 -0.21187,-0.63562 -0.15888,-0.47668 -0.21188,-0.95295 -0.21188,-1.37666 -0.106,-0.52965 -0.10571,-0.90049 -0.0527,-1.37717 0,-0.42372 -2.2e-4,-0.68863 -0.0532,-1.16531 -0.10593,-0.37076 -0.37075,-0.74158 -0.42375,-1.1653 -0.053,-0.47668 1e-5,-0.90023 0.21187,-1.32395 0.10593,-0.37075 0.2121,-0.68861 0.2651,-1.05937 0,-0.21185 0.053,-0.58293 0,-0.90072 0,-0.15889 -0.10594,-0.31781 -0.21187,-0.42374 -0.15889,-0.2648 -0.26486,-0.2643 -0.52968,-0.3173 -0.1589,0 -0.31782,-0.0532 -0.42375,-0.15916 -0.52965,-0.15889 -0.68885,-0.58269 -0.68885,-1.05937 0,-0.47669 1e-5,-1.00618 0.10594,-1.42989 0.053,-0.1589 0.15887,-0.21188 0.21187,-0.31781 0.1589,-0.1589 0.21186,-0.37104 0,-0.47697 -0.37075,-0.053 -0.79454,0.47695 -1.05936,0.0532 -0.10593,-0.21186 -0.0529,-0.42351 -0.10594,-0.5824 -0.053,-0.31779 -0.21189,-0.58262 -0.52968,-0.63562 -0.26482,-0.10593 -0.31759,-0.21215 -0.26459,-0.47697 0,-0.1589 0.21189,-0.42349 0.31781,-0.58239 0.21188,-0.21186 0.2116,-0.52971 0.0527,-0.8475 -0.10593,-0.1589 -0.37029,-0.37079 -0.31729,-0.52968 0.053,-0.1589 0.37052,-0.37053 0.37052,-0.58239 0,-0.37076 -0.63533,-0.58269 -0.68833,-1.05937 0,-0.21186 0.10594,-0.42403 0.10594,-0.68885 0,-0.37076 -0.10623,-0.6886 -0.0532,-1.05936 0.10593,-0.21186 0.31783,-0.47621 0.52968,-0.74104 0.1589,-0.10592 0.26459,-0.26512 0.26459,-0.47698 -0.053,-0.31779 -0.21188,-0.58241 -0.21188,-0.9002 -0.053,-0.21186 0.053,-0.47673 0,-0.74156 0,-0.15889 -0.10571,-0.26511 -0.0527,-0.47697 0,-0.26482 -0.0532,-0.52945 -0.15916,-0.9002 -0.053,-0.26483 -0.21158,-0.37055 -0.26458,-0.5824 -0.10593,-0.31779 -0.10595,-0.63564 -0.21188,-0.95343 -0.10593,-0.26482 -0.21188,-0.52996 -0.42374,-0.79478 -0.1589,-0.21186 -0.31752,-0.31756 -0.37052,-0.58239 0,-0.31778 0.42373,-0.58293 0.21187,-0.90072 -0.10593,-0.2648 -0.37105,-0.2643 -0.58291,-0.3173 -0.63558,-0.31778 0.15894,-1.11263 0.10594,-1.53634 0,-0.21186 -0.15866,-0.42376 -0.26459,-0.63562 -0.0529,-0.26483 0.10593,-0.52944 -0.10593,-0.68833 -0.21186,-0.1589 -0.31782,0.053 -0.42375,0.21187 -0.21186,0.26483 -0.26487,0.26461 -0.21187,0.5824 0.053,0.15889 0.053,0.37105 0,0.58291 -0.053,0.21185 -0.21215,0.15862 -0.37104,-0.0532 -0.21186,-0.31779 -0.21191,-0.84724 -0.84749,-1.00614 -0.42372,-0.053 -0.89997,-2.5e-4 -1.27073,0.15865 -0.31778,0.10593 -0.47698,0.42402 -0.68884,0.58291 -0.15889,0.31779 -0.31785,0.63533 -0.74156,0.68833 -0.31779,0.053 -0.74131,-0.053 -1.00614,-0.31781 -0.21185,-0.21185 -0.0529,-0.58242 -0.10594,-0.90021 0,-0.21184 -0.15917,-0.47668 -0.37103,-0.52968 -0.42372,-0.1589 -0.63533,0.42351 -0.68833,0.79427 -0.053,0.47668 -0.0532,1.00643 0.26458,1.48311 0.10586,0.26483 0.10616,0.31783 0.15916,0.63562 0.053,0.21186 0.26481,0.31783 0.31781,0.52969 0.053,0.21186 -0.15893,0.52944 -0.10593,0.79426 0,0.42372 0.21186,0.84753 0,1.16531 l -0.15917,0.21187 c -0.21186,0.42372 -0.58241,0.31782 -0.9002,0.52968 -0.42372,0.26483 -0.7416,0.8475 -1.27124,0.95343 -0.21186,0.0529 -0.63537,0.0527 -0.9002,-0.0532 -0.21186,-0.053 -0.31808,-0.37052 -0.58291,-0.37052 -0.21185,-0.053 -0.15865,0.15891 -0.15865,0.31781 0,0.21186 0.10592,0.52944 -0.10594,0.68833 -0.21186,0.15889 -0.42376,0.26481 -0.63562,0.31781 -0.21186,0.053 -0.58263,2.8e-4 -0.31781,0.2651 0.10593,0.21186 0.31809,0.21188 0.47698,0.31781 0.10593,0.053 0.21158,0.15865 0.26458,0.26458 0.21186,0.26482 -0.0532,0.79429 -0.0532,1.11208 0,0.31779 2.7e-4,0.68886 0.15917,1.00665 l 0.47645,0.47646 c 0.31779,0.31779 0.68856,0.58294 0.74156,1.11259 0,0.26483 2.5e-4,0.47647 -0.15865,0.68833 -0.10593,0.21186 -0.26481,0.26487 -0.31781,0.52969 -0.053,0.21186 -0.15892,0.37079 -0.31781,0.52968 -0.47669,0.63558 -0.95347,1.0594 -1.58905,1.37718 -0.26482,0.053 -0.63565,0.21187 -0.95343,0.21187 -0.1589,0 -0.5824,-0.10619 -0.68833,0.0527 -0.106,0.10593 -2.3e-4,0.21188 -0.0532,0.31781 0,0.10593 -0.0529,0.15887 -0.10593,0.21187 -0.053,0.21186 -2e-5,0.26483 -0.21188,0.10594 -0.21186,-0.10593 -0.26485,-0.52946 -0.52968,-0.47646 -0.15889,0.053 -0.47668,0.37053 -0.52968,0.47646 -0.21185,0.15889 -0.4235,0.58268 -0.68833,0.52968 -0.42372,0 -0.26459,-0.52943 -0.26459,-0.79426 0,-0.21186 0.0527,-0.42376 0.0527,-0.63562 0,-0.31778 0.0532,-0.68887 -0.0527,-1.00666 -0.053,-0.10593 -0.10594,-0.15865 -0.21187,-0.26458 -0.1059,-0.15889 0.15864,-0.31783 0.0527,-0.52969 -0.15889,-0.47668 -1.00612,-1.00644 -0.68833,-1.58905 0.10593,-0.1589 0.37075,-0.37079 0.42375,-0.52968 0.053,-0.21186 -0.31783,-0.21163 -0.52969,-0.37052 -0.26482,-0.1589 -0.42402,-0.47699 -0.58291,-0.68885 -0.21186,-0.21186 -0.47647,-0.47647 -0.68833,-0.79426 -0.10593,-0.10593 -0.21189,-0.79427 -0.52968,-0.79427 -0.47668,0.10593 -0.47646,0.95293 -0.47646,1.27072 0,0.37075 -2.2e-4,0.68888 -0.0532,1.1126 -0.053,0.10593 0.0527,0.52969 0.15864,0.74155 0.10592,0.21186 0.31783,0.26486 0.52969,0.42375 0.053,0.10593 0.15887,0.21188 0.21187,0.31781 0.053,0.15889 0.10623,0.31757 0.0532,0.47646 -0.053,0.47669 -0.31811,0.84722 -0.79479,0.68833 -0.21186,-0.10593 -0.42349,-0.10569 -0.58239,-0.37052 -0.26481,-0.37075 -0.26481,-0.9005 -0.31781,-1.37718 0,-0.31779 -1e-5,-0.58243 -0.10594,-1.00614 -0.10593,-0.84744 0.21209,-1.53612 -0.47645,-2.22467 -0.21186,-0.15889 -0.21188,-0.47673 -0.31781,-0.63562 -0.053,-0.10593 -0.0532,-0.15892 -0.0532,-0.31781 -0.10593,-0.42372 0.15917,-0.31783 0.2651,-0.63562 0.053,-0.15889 -0.10594,-0.26459 -0.21187,-0.37052 -0.15888,-0.10593 -0.21188,-0.10595 -0.21188,-0.31781 -0.053,-0.21186 0.0527,-0.47672 -0.0532,-0.63562 -0.10593,-0.15889 -0.26481,-0.21163 -0.31781,-0.37052 -0.1589,-0.31779 -0.37079,-0.58267 -0.63562,-0.84749 -0.26482,-0.26482 -0.52946,-0.477 -0.47646,-0.90072 0,-0.21186 0.0527,-0.47673 0.0527,-0.74156 0,-0.31779 2.4e-4,-0.37053 -0.26458,-0.47646 -0.26482,-0.10593 -0.42376,-0.15918 -0.63562,-0.2651 -0.26482,-0.1589 -0.42346,-0.37028 -0.47646,-0.6351 0,-0.42372 0.31758,-0.63585 0.68833,-0.68885 0.47668,-0.1589 0.74155,-0.42351 0.63562,-0.9002 -0.10593,-0.26482 -0.26486,-0.42376 -0.42375,-0.63562 -0.0529,-0.1589 -0.15893,-0.42376 -0.10593,-0.63562 0.1589,-0.52965 0.47648,-0.26486 0.9002,-0.42375 0.31779,-0.10593 0.10616,-0.52945 0.15916,-0.79427 0.053,-0.26483 0.31781,-0.42402 0.31781,-0.68884 0.053,-0.31779 -0.15892,-0.58268 -0.31781,-0.8475 -0.1589,-0.21186 -0.31805,-0.37079 -0.15916,-0.63562 0.053,-0.37075 0.3181,-0.52968 0.68885,-0.52968 0.31779,-0.053 0.5824,0.10592 0.68833,-0.21187 0.15889,-0.26482 0.10618,-0.4235 -0.15865,-0.68833 -0.15889,-0.21186 0.053,-0.47647 0.21187,-0.68833 0.1589,-0.26481 0.31758,-0.37081 0.68833,-0.31781 0.21186,0 0.42376,0.3178 0.63562,0.21187 0.1589,-0.10593 0.31757,-0.42402 0.47646,-0.58291 0.10593,-0.1589 0.47675,-0.26486 0.42375,-0.52968 -0.10593,-0.21186 -0.31782,-0.31758 -0.42375,-0.5824 -0.053,-0.053 -0.2116,-0.42376 -0.0527,-0.74155 0.21186,-0.3178 0.74132,-0.15916 1.00614,-0.0532 0.21186,0.053 0.47699,0.053 0.68885,0.21187 0.1589,0.053 0.37053,0.2121 0.58239,0.2651 0.21186,0.053 0.58241,-0.053 0.79427,0 0.42372,0.053 0.63591,0.21188 1.11259,0.21188 0.10593,-0.053 0.26459,-0.10617 0.37052,-0.15917 0.58261,-0.47668 0.63563,-1.32374 0.74156,-2.01228 0.053,-0.26482 2.8e-4,-0.58291 0.2651,-0.68884 0.42372,-0.10593 0.63533,0.31783 0.68833,0.63562 0.10593,0.21186 0.21189,0.63536 0.52968,0.79426 0.26483,0.10593 0.5824,0.0535 0.68833,-0.21135 0.15889,-0.58261 -0.42372,-1.21857 -0.10593,-1.74822 0.21184,-0.42375 0.58292,-0.31754 0.79478,-0.0527 0.15889,0.21186 0.10571,0.6354 0.58239,0.5824 0.1589,-0.053 0.31782,-0.10569 0.42375,-0.26459 0.21186,-0.21185 0.21216,-0.37103 0.58291,-0.37103 0.37076,-0.053 0.52944,0.10596 0.68833,0.52968 0.053,0.21186 0.053,0.47699 0,0.68885 -0.10586,0.053 -0.15916,0.10542 -0.15916,0.21135 0,0.10593 0.15891,0.47698 0.31781,0.47698 0.37075,0.053 0.58265,-0.84752 0.74155,-1.16531 0.2648,-0.63558 -0.0527,-1.32425 -0.0527,-2.01279 0,-0.37076 4e-5,-0.68833 0.52969,-0.68833 0.21186,0.0529 0.47647,0.10593 0.68833,0.10593 0.26483,0.10593 0.58263,0.15863 0.42374,-0.15916 -0.15889,-0.1589 -0.84747,-0.79403 -0.52968,-1.16479 0.1589,-0.15889 0.63589,0.0529 0.79478,0.10594 0.10593,0.053 0.63537,0.26481 0.79427,0.31781 0.58261,0.1589 1.27127,0.21186 1.80092,0 0.74151,-0.31779 0.52967,-1.16534 0.31781,-1.69499 -0.1059,-0.37076 -0.63583,-1.3774 0.0527,-1.4304 0.21186,0 0.52969,0.26511 0.63562,0.47697 0.15889,0.21186 0.31809,0.52944 0.47698,0.68833 0.1589,0.1589 0.37052,0.21186 0.37052,0 0.053,-0.15889 -0.0527,-0.42376 -0.15865,-0.63562 -0.15887,-0.47669 -0.21187,-1.00591 -0.21187,-1.4826 0,-0.21184 -2.9e-4,-0.47673 0.0527,-0.74155 0.10593,-0.42372 0.26485,-0.79456 0.52968,-1.16531 0.21185,-0.26482 0.52995,-0.58267 0.68885,-0.95343 0.0529,-0.42371 0.15842,-0.79429 0.10542,-1.21801 -0.053,-0.31779 -0.58238,-0.84777 -0.37052,-1.21853 0.053,-0.10593 0.26481,-0.10569 0.31781,-0.26458 0.10594,-0.21186 0.15864,-0.58293 0.15864,-0.90072 0.053,-0.21186 0.26487,-0.52946 0.52969,-0.47646 0.26483,0.053 0.47698,0.42349 0.68884,0.58239 0.21186,0.10593 0.37053,0.26485 0.47646,0.42375 0.15889,0.15889 0.37104,0.21189 0.47697,0.31781 0.1589,0.10593 0.26481,0.15887 0.31781,0.21187 0.1589,0.10593 0.42376,0.1062 0.63562,0.2651 0.31779,0.15889 0.74106,0.10567 1.05885,-0.15916 0.37075,-0.37075 0.52998,-0.68836 0.47698,-1.21801 -0.10593,-0.15889 -10e-6,-0.47647 -0.10594,-0.68833 -0.053,-0.15889 -0.26481,-0.42376 -0.31781,-0.52969 -0.21186,-0.15889 -0.63538,0.37077 -0.9002,0.10594 -0.1589,-0.10593 -0.15892,-0.47699 -0.31781,-0.68885 -0.10587,-0.21186 -0.10617,-0.4235 -0.15917,-0.58239 -0.1589,-0.26483 -0.37079,-0.5297 -0.52968,-0.74156 -0.37076,-0.37075 -0.7943,-0.58291 -1.32395,-0.58291 -0.26483,0 -0.42403,0.15917 -0.68885,0.2651 -0.21186,0.10593 -0.37028,0.053 -0.6351,0 -0.31779,-0.053 -0.5297,-0.47698 -0.84749,-0.68884 -0.10593,-0.10593 -0.26511,-0.26433 -0.37104,-0.42323 -0.0529,-0.10593 -0.0529,-0.2121 -0.10594,-0.2651 -0.1589,-0.21186 -0.37079,-0.37075 -0.52968,-0.42375 -0.26482,-0.10593 -0.63564,0.053 -0.95343,-0.10594 -0.10593,-0.053 -0.26459,-0.15892 -0.37052,-0.31781 -0.42372,-0.42372 -0.90024,-0.79425 -1.42989,-0.58239 l -0.31781,0.15865 c -0.15889,0.053 -0.42402,0.0532 -0.58291,0.0532 -0.21186,0.053 -0.47672,-2.9e-4 -0.74155,0.0527 -0.58261,0.10593 -1.11186,0.053 -1.69447,0 -0.52965,-0.053 -1.32425,-0.2116 -1.80093,0.0532 -0.21186,0.15889 -0.47699,0.37053 -0.79478,0.47646 -0.31778,0.0529 -0.68811,0 -0.95291,0.10593 -0.31779,0.15889 -1.32425,0.37075 -1.27125,-0.10593 0,-0.21186 -2.9e-4,-0.21164 0.0527,-0.47646 0,-0.21186 -0.15892,-0.42404 -0.42374,-0.37104 -0.10593,0 -0.21163,0.15892 -0.37052,0.31781 -0.10593,0.1589 -0.31783,0.21215 -0.52969,0.37104 -0.26483,0.15892 -0.63564,0.10571 -0.95343,0.0527 -0.58259,0 -1.11211,-2e-5 -1.64176,-0.31781 -0.63557,-0.31779 -1.32451,-0.10565 -1.96008,-0.15865 -0.37076,-0.053 -0.58216,-0.2646 -0.84698,-0.58239 -0.10593,-0.10593 -0.21215,-0.26486 -0.37104,-0.42375 -0.1589,-0.10593 -0.31755,-0.15887 -0.47645,-0.21187 -0.10593,0 -0.15917,-0.0532 -0.2651,-0.0532 -0.26483,-0.10593 -0.47649,0.1062 -0.79427,0.2651 -0.26483,0.21185 -0.58268,0.31754 -0.95343,0.15865 -0.95337,-0.47668 -2.38363,-0.47692 -3.1781,0.26458 -0.84743,0.74151 -3.019,0.84769 -3.76049,-0.15864 -0.053,-0.21186 -0.37056,-0.42374 -0.68833,-0.31781 -0.37075,0.053 -0.31783,0.37053 -0.52969,0.58239 -0.31779,0.37076 -0.79456,0.10592 -1.05936,-0.21187 -0.1589,-0.15886 -0.42351,-0.21136 -0.68834,-0.21136 -0.21184,0.053 -0.42376,0.10565 -0.74155,0.15865 -0.37076,0.053 -0.63565,0 -1.05937,0 -0.21186,-0.053 -0.58241,-0.053 -0.9002,0 -0.21186,0.053 -0.3708,0.10564 -0.74156,0.15864 -0.47668,0.0529 -0.7416,-0.10571 -1.27124,-0.0527 -0.31779,0.10592 -0.7943,0.10568 -1.11208,-0.0532 -0.21186,-0.15889 -0.37105,-0.37053 -0.68884,-0.47646 -0.42371,-0.15889 -0.68836,-0.42375 -1.11208,-0.52968 -0.42372,-0.10593 -0.84752,-0.15866 -1.27124,-0.26459 -0.31779,-0.10593 -0.68835,-0.15887 -1.00614,-0.21187 -0.37076,-0.053 -0.74158,-0.0532 -1.05937,-0.2651 -0.10593,-0.1589 -0.31808,-0.26459 -0.47697,-0.37052 -0.10593,-0.15889 -0.15865,-0.31782 -0.26458,-0.42375 -0.15889,-0.15889 -0.47699,-0.21189 -0.68885,-0.31781 -0.52965,-0.26483 -0.9532,-0.42401 -1.42989,-0.58291 -0.31779,-0.10593 -0.63565,-0.31781 -0.95343,-0.42374 -0.26483,-0.15889 -0.42376,0 -0.74155,0.10593 -0.1589,0.053 -0.31757,0.10595 -0.47646,0.21188 -0.053,0.10593 -0.26511,0.2651 -0.37104,0.2651 -0.26482,-0.053 0.10617,-0.68861 0.15917,-0.8475 0.15889,-0.37075 -0.15917,-0.84753 -0.15917,-1.27124 0.0529,-0.1589 10e-6,-0.31783 0.10594,-0.42374 0.1589,-0.1589 0.31782,-0.26486 0.42375,-0.42375 0.15889,-0.10593 0.26481,-0.31783 0.31781,-0.52969 0.15889,-0.47666 0.26481,-0.84727 0.31781,-1.32395 0.10593,-0.74149 0.053,-1.53587 0,-2.27738 -0.053,-0.26482 -0.053,-0.58267 -0.21188,-0.84749 -0.053,-0.1589 -0.10595,-0.31804 -0.31781,-0.37104 -0.21186,-0.15889 -0.47674,-0.37054 -0.42374,-0.68833 0,-0.26482 0.21214,-0.58241 0.37103,-0.9002 0.15892,-0.26482 0.15864,-0.47673 0.0527,-0.84749 -0.053,-0.26482 -0.31752,-0.58293 -0.37052,-0.90072 -0.10593,-0.21186 0.0527,-0.52945 0.15865,-0.79427 0.15889,-0.264822 0.31782,-0.58293 0.42375,-0.900717 0.10593,-0.317789 -0.26483,-0.582415 0.10593,-0.900204 0.26482,-0.158894 0.42375,-0.317576 0.42375,-0.68833 0,-0.264822 -0.31782,-0.476726 -0.52968,-0.63562 -0.26483,-0.370754 -0.52946,0 -0.90021,0 -0.10593,0 -0.2121,0.105929 -0.2651,0 -0.053,-0.10593 -0.10571,-0.424003 -0.0527,-0.476973 0.15889,-0.476683 0.52968,-0.741076 0.42375,-1.270724 0,-0.370751 -0.2121,-0.688614 -0.2651,-1.059367 -0.053,-0.158895 -0.15891,-0.423754 -0.31781,-0.529683 -0.21186,-0.158895 -0.37079,-0.265114 -0.52968,-0.476974 -0.1589,-0.211857 -0.3173,-0.370534 -0.42323,-0.582393 -0.21186,-0.158895 -0.26512,-0.371046 -0.47698,-0.476973 -0.10592,-0.10593 -0.15865,-0.05297 -0.26458,0 -0.15889,0.05296 -0.31782,0.05323 -0.42375,0.05323 -0.42372,0.10593 -0.15917,0.529705 -0.2651,0.847494 0,0.211859 -0.31782,0.158903 -0.52968,0.211873 -0.21186,0.10593 -0.37079,0.21188 -0.52969,0.31781 -0.74148,0.688542 0.95373,1.006423 1.21853,1.377177 0.21186,0.370753 -3e-5,0.899947 -0.52968,0.846977 -0.37075,-0.05296 -1.21852,-0.211567 -1.11259,0.476973 0.053,0.158895 0.21187,0.264597 0.21187,0.476457 0.053,0.211859 -0.0527,0.424016 -0.15865,0.58291 -0.21186,0.476684 -0.42376,-0.05298 -0.63562,-0.211873 -0.15889,-0.158897 -0.68859,-0.264832 -0.84749,-0.105937 -0.26482,0.264824 -0.15867,0.37052 -0.58239,0.37052 -0.42372,-0.05297 -0.26486,-0.529698 -0.52969,-0.741557 -0.15889,-0.211865 -0.47673,-0.158646 -0.74155,-0.158646 -0.42372,0 -0.84752,0.0527 -1.16531,-0.05323 -0.31779,-0.05297 -0.5297,-0.211625 -0.84749,-0.37052 -0.21185,-0.105929 -0.31756,-0.317825 -0.47646,-0.529683 -0.10593,-0.158894 -0.2651,-0.211882 -0.37103,-0.317811 -0.21186,-0.211858 -0.31783,-0.476471 -0.52969,-0.68833 -0.15889,-0.105929 -0.26459,-0.26485 -0.47645,-0.31781 -0.26483,-0.05297 -0.6359,-0.05323 -0.90072,-0.159163 -0.31779,-0.105929 -0.31757,-0.370535 -0.5824,-0.582393 -0.31779,-0.370753 0.0532,-0.900751 0.0532,-1.324467 0,-0.158895 0.0527,-0.4235 -0.0532,-0.582394 -0.053,-0.211859 -0.26484,-0.21188 -0.42374,-0.31781 -0.31778,-0.10593 -0.79452,-0.476478 -0.52969,-0.794267 0.21186,-0.264822 0.58263,-0.318095 0.31781,-0.688846 -0.31779,-0.264824 -0.47671,-0.476485 -0.31781,-0.900204 0.37075,-1.006329 -0.053,-0.741817 -0.95343,-0.688847 -0.47668,0 -0.84751,-0.211647 -1.1653,-0.68833 -0.31778,-0.423717 -0.26461,-0.688293 -0.68833,-0.158647 -0.95336,1.006329 -0.1591,1.429669 0.68833,2.012281 0.47669,0.264822 2.01302,1.059659 1.4304,1.53634 -0.68854,0.529648 -1.74798,-1.006629 -2.22467,-0.58291 -0.10593,0.476681 0.79425,0.635394 0.5824,1.112077 -0.21186,0.370761 -0.84725,0.212121 -1.11208,0.05323 -0.26482,-0.211857 -0.26461,-1.217976 -0.68833,-0.68833 -0.10593,0.158894 -0.52998,0.952899 -1.00666,0.74104 -0.26482,-0.476681 -0.47649,-0.899964 -1.00614,-1.164786 -0.21186,-0.10593 -0.21188,-1.4e-5 -0.42374,-0.211874 -0.15889,-0.105929 -0.31781,-0.318078 -0.31781,-0.476973 -0.10593,-1.006329 -2.17142,-2.277133 -1.7477,-2.436027 0.15889,-0.05296 0.42384,-1.112587 -1.95957,-1.006657 -0.37076,0 -0.47673,-0.423506 -0.63562,-0.68833 -0.21186,-0.476683 -0.31811,-0.58267 -0.90072,-0.847494 -0.47668,-0.317787 -0.79427,-0.476755 -0.79427,-1.059367 0,-0.370752 0.2116,-0.847259 -0.0532,-1.218013 -0.14565,-0.198623 -0.30453,-0.251593 -0.46508,-0.211873 z m 57.29676,91.576326 c -0.053,0.21186 0.0528,0.47673 -0.0532,0.63562 -0.053,0.1589 -0.31752,0.26485 -0.37052,0.42374 l -0.10594,-0.15916 c -0.21186,0.26482 -0.26487,0.37054 -0.21187,0.68833 0.053,0.37075 -1e-5,0.37106 -0.21187,0.68885 -0.10593,0.26482 -0.053,0.52969 0.21187,0.74155 0.31779,0.21186 0.79427,0.10598 0.79427,0.63562 v 0.42375 c 0.10593,0.1589 0.2121,0.2646 0.2651,0.47646 0.053,0.15889 -2.5e-4,0.9532 0.26458,0.9002 0.15889,0 0.15916,-0.21162 0.15916,-0.37052 0.1589,-0.26482 0.4235,-0.21165 0.68833,-0.15865 0.26482,0.053 0.31782,0.10593 0.42375,-0.10593 0.1059,-0.21186 0.10613,-0.52996 0.0532,-0.68885 -0.053,-0.1589 -0.15917,-0.31782 -0.15917,-0.52968 0,-0.10593 0.10594,-0.2646 0.10594,-0.47646 0,-0.47669 -0.26461,-0.7948 -0.68833,-1.00666 -0.58261,-0.21186 -0.52996,-0.79404 -0.68885,-1.27072 -0.053,-0.31779 -0.21163,-0.68859 -0.47645,-0.84749 z m -7.4135,2.46858 c -0.54438,0.0292 -0.84905,0.90399 -0.84905,1.39785 -0.106,0.68855 -2.2e-4,1.37696 -0.0532,2.0655 v 0.37052 c -0.0529,0.26483 -0.0529,0.63564 -0.10594,0.95343 -0.10593,0.37075 -0.2646,0.68887 -0.47646,1.00666 -0.15889,0.31779 -0.52944,0.58215 -0.68833,0.95291 -0.15893,0.26482 -0.10593,0.74159 -0.10593,1.05937 -0.053,0.1589 -0.053,0.31807 0,0.47697 0.26482,0.053 0.37053,-2.6e-4 0.58239,-0.15916 0.21186,-0.15889 0.58241,-0.5824 0.9002,-0.68833 0.21186,-0.053 0.37105,-0.053 0.58291,-0.21187 0.10593,-0.15889 0.31756,-0.31783 0.47646,-0.52969 0.47668,-0.52964 0.74183,-1.27103 0.90072,-1.95957 0.053,-0.68855 0.26455,-1.43044 -0.15916,-2.06602 -0.21186,-0.26482 -0.52969,-0.58215 -0.52969,-0.95291 -0.053,-0.21186 2.9e-4,-0.52971 -0.0527,-0.74156 0,-0.26483 -0.15893,-0.58293 -0.10593,-0.90072 -0.0927,-0.0464 -0.18054,-0.0694 -0.26304,-0.0734 -0.0181,-8.6e-4 -0.0357,-9.4e-4 -0.0532,0 z" /></g></g><style
     type="text/css"
     id="style1">&#10;	.st0{fill:#04984A;}&#10;	.st1{fill:#FFFFFF;}&#10;	.st2{fill:#EC2227;}&#10;	.st3{fill:#FCEE23;}&#10;</style><metadata
     id="metadata38"><rdf:RDF><cc:Work
         rdf:about=""><dc:title>Government of the People's Republic of Bangladesh - গণপ্রজাতন্ত্রী বাংলাদেশ সরকার</dc:title></cc:Work></rdf:RDF></metadata></svg>
